<?xml version="1.0" encoding="UTF-8"?>
<svg width="100px" height="100px" viewBox="0 0 1500 1500" xmlns="http://www.w3.org/2000/svg" xmlns:xlink="http://www.w3.org/1999/xlink" version="1.1">
  <path id="path" d="M1396.373 1151.554 C1396.373 1014.914 1285.603 904.145 1148.964 904.145 1012.324 904.145 901.554 1014.914 901.554 1151.554 901.554 1288.194 1012.324 1398.964 1148.964 1398.964 1285.603 1398.964 1396.373 1288.194 1396.373 1151.554 Z" fill="white"/>
  <path id="path-1" d="M601.036 353.627 C601.036 216.987 490.267 106.218 353.627 106.218 216.987 106.218 106.218 216.987 106.218 353.627 106.218 490.267 216.987 601.036 353.627 601.036 490.267 601.036 601.036 490.267 601.036 353.627 Z" fill="white"/>
  <path id="path-2" d="M1321.37 181.23 C1221.715 81.575 1060.142 81.575 960.489 181.23 898.702 243.016 890.052 298.565 890.052 408.477 890.052 503.736 831.344 610.785 721.43 720.699 600.526 841.604 508.933 892.914 406.347 892.914 292.769 892.914 232.318 909.399 168.202 973.516 92.394 1049.321 74.79 1209.813 182.87 1317.896 290.95 1425.977 441.15 1422.324 530.912 1332.562 598.73 1264.743 607.855 1189.228 607.855 1094.415 607.855 995.492 670.137 914.878 792.875 792.142 902.787 682.228 995.005 611.8 1090.261 611.8 1172.86 611.8 1258.583 604.891 1321.365 542.106 1421.021 442.453 1421.023 280.883 1321.37 181.23 Z" fill="white"/>
</svg>
